<svg  viewBox="0 0 24 28" fill="none" xmlns="http://www.w3.org/2000/svg">
<path d="M20.0454 14.8903C20.0747 12.7288 21.2977 10.6836 23.2378 9.55149C22.0139 7.89236 19.9639 6.84043 17.8311 6.77709C15.5563 6.55045 13.3509 8.06913 12.1917 8.06913C11.0101 8.06913 9.22533 6.79959 7.30342 6.83712C4.79831 6.91395 2.46291 8.26584 1.24411 10.3447C-1.37581 14.6502 0.578418 20.9778 3.08808 24.458C4.34372 26.1622 5.81121 28.0658 7.73138 27.9983C9.61038 27.9243 10.3122 26.861 12.5803 26.861C14.8273 26.861 15.4857 27.9983 17.4449 27.9553C19.4611 27.9243 20.7315 26.2436 21.9431 24.5233C22.8452 23.309 23.5394 21.967 24 20.5469C21.6305 19.5956 20.0482 17.3323 20.0454 14.8903Z" fill="current"/>
<path d="M16.3449 4.48832C17.4443 3.23566 17.9859 1.62558 17.8547 0C16.1752 0.167441 14.6237 0.929367 13.5095 2.13397C12.42 3.31092 11.853 4.89268 11.9602 6.45612C13.6403 6.47254 15.2921 5.73127 16.3449 4.48832Z" fill="current"/>
</svg>
