<svg  viewBox="0 0 32 32" fill="none" xmlns="http://www.w3.org/2000/svg">
<path d="M27.8666 2.66675H4.13329C3.74431 2.66675 3.37126 2.82127 3.0962 3.09632C2.82115 3.37138 2.66663 3.74443 2.66663 4.13341V27.8667C2.66663 28.2557 2.82115 28.6288 3.0962 28.9038C3.37126 29.1789 3.74431 29.3334 4.13329 29.3334H16.9066V19.0001H13.44V15.0001H16.9066V12.0001C16.8348 11.2958 16.918 10.5842 17.1502 9.91546C17.3825 9.24668 17.7583 8.63681 18.2512 8.12863C18.7442 7.62045 19.3423 7.22627 20.0037 6.97373C20.6651 6.72119 21.3738 6.61642 22.08 6.66675C23.1177 6.66036 24.155 6.71378 25.1866 6.82675V10.4267H23.0666C21.3866 10.4267 21.0666 11.2267 21.0666 12.3867V14.9601H25.0666L24.5466 18.9601H21.0666V29.3334H27.8666C28.0592 29.3334 28.2499 29.2955 28.4279 29.2218C28.6058 29.1481 28.7675 29.04 28.9037 28.9038C29.0399 28.7676 29.1479 28.606 29.2216 28.428C29.2954 28.2501 29.3333 28.0594 29.3333 27.8667V4.13341C29.3333 3.94081 29.2954 3.75009 29.2216 3.57215C29.1479 3.3942 29.0399 3.23252 28.9037 3.09632C28.7675 2.96013 28.6058 2.8521 28.4279 2.77839C28.2499 2.70468 28.0592 2.66675 27.8666 2.66675Z" fill="current"/>
</svg>
